<svg width="150" height="150" viewBox="0 0 150 150" fill="none" xmlns="http://www.w3.org/2000/svg">
<circle cx="75" cy="75" r="75" fill="#002D01"/>
<path d="M73.2083 48V53.9446L69.0535 49.8608L65.9048 53.0119L69.9817 57.1667H64.0417V61.75H69.9862L65.9048 65.9048L69.0535 69.0535L73.2083 64.9767V70.9167H77.7917V64.9721L81.9465 69.0535L85.0975 65.9048L81.0115 61.75H86.9583V57.1667H81.0138L85.0975 53.0119L81.9465 49.8608L77.7917 53.9469V48H73.2083ZM75.5 54.875C78.0254 54.875 80.0833 56.9329 80.0833 59.4583C80.0833 61.9838 78.0254 64.0417 75.5 64.0417C72.9746 64.0417 70.9167 61.9838 70.9167 59.4583C70.9167 56.9329 72.9746 54.875 75.5 54.875ZM53.0852 75.5L48 95.8385V103H103V95.8385L97.9148 75.5H53.0852ZM56.6648 80.0833H94.3375L98.4167 96.4115V98.4167H52.5833V96.4115L56.6648 80.0833ZM59.4583 82.375L58.5279 86.5298H63.3267L64.0417 82.375H59.4583ZM68.625 82.375L68.1942 86.5298H72.9929L73.2083 82.375H68.625ZM77.7917 82.375L78.0071 86.5298H82.8035L82.375 82.375H77.7917ZM86.9583 82.375L87.6756 86.5298H92.4721L91.5417 82.375H86.9583ZM57.5952 91.1131L56.7404 96.125H61.9654L62.6827 91.1108L57.5952 91.1131ZM67.9077 91.1131L67.4792 96.125H72.7798L72.9929 91.1108L67.9077 91.1131ZM78.0071 91.1131L78.2202 96.125H83.5208L83.09 91.1108L78.0071 91.1131ZM88.3196 91.1131L89.0346 96.125H94.2642L93.4048 91.1108L88.3196 91.1131Z" fill="white"/>
</svg>
