<svg width="150" height="150" viewBox="0 0 150 150" fill="none" xmlns="http://www.w3.org/2000/svg">
<circle cx="75" cy="75" r="75" fill="#002D01"/>
<path fill-rule="evenodd" clip-rule="evenodd" d="M102.838 99H47.1614C46.7218 99.0001 46.2927 98.868 45.9311 98.6212C45.5696 98.3745 45.2929 98.0248 45.1379 97.6189C44.9829 97.213 44.957 96.7701 45.0636 96.3492C45.1702 95.9284 45.4043 95.5496 45.7346 95.2635C49.6194 91.8992 51.6169 90.1989 51.7282 90.1616C51.9379 90.1019 52.1454 90.0389 52.3465 89.9803C58.246 88.1936 59.6566 86.648 60.1884 84.9424C61.1655 84.5114 61.5309 84.2149 61.7254 83.1898C61.8465 82.5392 61.9416 80.3525 61.8487 79.5952C61.2898 79.0565 60.9861 77.6709 60.7159 77.1173C60.0889 75.8362 59.9787 75.1738 59.3766 73.0181C59.2848 72.7301 59.0859 72.712 58.9464 72.6554C58.7367 72.5701 58.5541 72.4314 58.3606 72.1712C57.8126 71.4394 58.1552 71.0256 57.6418 69.6357C56.9879 68.0549 56.7241 66.4944 57.2224 66.0272C57.5575 65.7306 57.7845 65.9226 57.9477 65.9824C58.0558 66.0229 57.9725 65.753 57.8763 65.3637C57.4818 63.7722 57.4591 60.5957 57.4591 60.5957L57.5197 60.5946C57.3175 59.2666 57.364 58.0431 58.2568 56.1893C59.1356 54.2938 59.9214 54.7119 60.3646 54.2255C62.227 52.1551 63.9402 52.1018 65.2265 51.5546C68.1179 50.3226 70.5553 51.4138 72.5052 52.2191C73.3267 52.5679 75.7166 52.8378 76.5154 54.5786C76.9802 55.5919 77.3887 57.3253 77.5465 57.4799C77.713 58.2277 77.8038 59.433 77.7173 60.7546C77.6114 62.3866 77.6092 63.736 77.218 65.3285C77.1185 65.7157 77.0331 65.9866 77.1423 65.945C77.3077 65.8842 77.513 65.6645 77.8481 65.96C78.3442 66.4272 78.2426 68.0549 77.5887 69.6357C77.0774 71.0256 77.3596 71.2816 77.0331 71.8512C76.8926 72.0997 76.7953 72.4357 76.3727 72.5872C76.2322 72.6384 76.0614 72.761 75.9965 73.0586C75.5404 75.1536 75.4258 75.5354 74.9481 77.1077C74.7697 77.6944 74.3622 78.9605 73.8239 79.4586C73.7115 80.3589 73.9774 82.6693 74.1298 83.1898C74.4865 84.409 74.827 84.6469 75.5209 84.9424C76.3403 86.6331 76.9802 88.8187 82.8257 89.8992C83.1824 89.5024 83.3769 89.1035 83.5034 88.6907C84.2081 88.3749 84.4708 88.1573 84.6102 87.4064C84.6978 86.9285 84.7659 85.3253 84.6999 84.7696C84.2968 84.3749 84.0773 83.3584 83.8828 82.952C83.432 82.0133 83.3531 81.5269 82.9186 79.9472C82.8527 79.7349 82.7089 79.7221 82.6084 79.6805C82.4363 79.6044 82.29 79.4811 82.1868 79.3253C81.7923 78.7888 82.0388 78.4858 81.668 77.4661C81.1978 76.3066 81.0087 75.1621 81.3675 74.8197C81.6086 74.6032 81.7707 74.7429 81.8896 74.7877C81.9674 74.8165 81.908 74.6192 81.8377 74.3333C81.5534 73.1664 81.5372 70.8378 81.5372 70.8378L81.5805 70.8357C81.4356 69.8618 81.4691 68.9648 82.1123 67.6048C82.7457 66.216 83.3121 66.5221 83.6298 66.1648C84.9723 64.6469 86.2056 64.6074 87.132 64.2064C89.2149 63.3029 90.9713 64.104 92.3754 64.6938C92.9667 64.9498 94.6885 65.1472 95.2636 66.424C95.5986 67.1685 95.8937 68.4389 96.0072 68.553C96.1261 69.1002 96.1921 69.9845 96.1304 70.953C96.0548 72.1498 96.0526 73.1397 95.7705 74.3077C95.6981 74.5914 95.6365 74.7898 95.7165 74.7589C95.8354 74.7162 95.9824 74.5541 96.2245 74.7706C96.5812 75.113 96.5088 76.3066 96.0375 77.4661C95.67 78.4858 95.8721 78.6736 95.6376 79.0906C95.5359 79.273 95.4668 79.5194 95.162 79.6304C95.0604 79.6677 94.9371 79.7584 94.8907 79.976C94.5621 81.512 94.4799 81.7925 94.1351 82.9456C94.0076 83.3765 93.7136 84.3045 93.3244 84.6693C93.2444 85.3307 93.4358 87.0245 93.546 87.4064C93.8022 88.3003 94.0476 88.4741 94.548 88.6907C95.163 89.9824 95.6365 91.6667 100.354 92.4208C100.569 92.4549 100.79 92.488 101.024 92.5189L104.245 95.2475C104.58 95.5312 104.819 95.9093 104.93 96.3311C105.041 96.7528 105.018 97.198 104.865 97.6066C104.712 98.0153 104.435 98.3679 104.073 98.617C103.711 98.8661 103.28 98.9997 102.838 99Z" fill="white"/>
</svg>
