<svg width="150" height="150" viewBox="0 0 150 150" fill="none" xmlns="http://www.w3.org/2000/svg">
<circle cx="75" cy="75" r="75" fill="#002D01"/>
<path d="M59.9916 66.9514V70.4411L70.4968 62.8446L59.9916 56V59.1102C55.7638 59.5058 51.849 61.5357 49.0604 64.7783C46.2718 68.0208 44.8238 72.2267 45.0171 76.5223C45.2105 80.8178 47.0304 84.8728 50.0987 87.8449C53.1671 90.817 57.248 92.4778 61.4939 92.4821C65.2757 92.4821 70.4968 91.1345 73.5013 87.9214C77.2516 83.5345 81.7233 72.4874 81.7233 72.4874L68.3257 81.2825C67.4227 82.3146 66.2913 83.1158 65.0241 83.6204C63.7569 84.1251 62.3898 84.319 61.0344 84.1862C59.6791 84.0535 58.374 83.5979 57.2257 82.8567C56.0775 82.1154 55.1187 81.1096 54.4277 79.9213C53.7367 78.733 53.333 77.396 53.2497 76.0196C53.1664 74.6431 53.4059 73.2662 53.9485 72.0014C54.4911 70.7366 55.3214 69.6197 56.3717 68.742C57.422 67.8643 58.6624 67.2507 59.9916 66.9514Z" fill="white"/>
<path d="M90.0084 83.0522V79.5625L79.5032 87.1625L90.0084 94V90.8933C94.2362 90.4977 98.151 88.4678 100.94 85.2253C103.728 81.9827 105.176 77.7768 104.983 73.4813C104.789 69.1857 102.97 65.1307 99.9013 62.1586C96.8329 59.1865 92.752 57.5258 88.5061 57.5214C84.7243 57.5214 79.5032 58.8691 76.5022 62.0821C72.7484 66.4691 68.2767 77.5162 68.2767 77.5162L81.6743 68.721C82.5776 67.6912 83.7086 66.8922 84.9749 66.3892C86.2412 65.8863 87.607 65.6938 88.9608 65.8272C90.3146 65.9607 91.6181 66.4164 92.7649 67.1572C93.9116 67.898 94.8692 68.9029 95.5595 70.0899C96.2498 71.2769 96.6532 72.6123 96.7368 73.9873C96.8204 75.3623 96.5819 76.7378 96.0407 78.0016C95.4994 79.2654 94.6708 80.3817 93.6225 81.2594C92.5742 82.1372 91.3358 82.7515 90.0084 83.0522Z" fill="white"/>
</svg>
