<svg width="150" height="150" viewBox="0 0 150 150" fill="none" xmlns="http://www.w3.org/2000/svg">
<circle cx="75" cy="75" r="75" fill="#002D01"/>
<path d="M90.1946 79.873C88.9023 78.5805 88.1763 76.8277 88.1763 75C88.1763 73.1723 88.9023 71.4195 90.1946 70.127C91.4869 68.8346 92.2129 67.0817 92.2129 65.2541C92.2129 63.4264 91.4869 61.6735 90.1946 60.3811L89.6205 59.807C88.3281 58.5147 86.5753 57.7888 84.7476 57.7888C82.9199 57.7888 81.1671 58.5147 79.8746 59.807C79.2346 60.4471 78.4748 60.9549 77.6385 61.3014C76.8023 61.6478 75.906 61.8261 75.0008 61.8261C74.0956 61.8261 73.1993 61.6478 72.3631 61.3014C71.5268 60.9549 70.767 60.4471 70.127 59.807C68.8346 58.5147 67.0817 57.7888 65.2541 57.7888C63.4264 57.7888 61.6735 58.5147 60.3811 59.807L59.807 60.3795C58.5147 61.6719 57.7888 63.4248 57.7888 65.2524C57.7888 67.0801 58.5147 68.833 59.807 70.1254C60.4471 70.7654 60.9549 71.5252 61.3014 72.3615C61.6478 73.1977 61.8261 74.094 61.8261 74.9992C61.8261 75.9044 61.6478 76.8007 61.3014 77.6369C60.9549 78.4732 60.4471 79.233 59.807 79.873C58.5147 81.1654 57.7888 82.9183 57.7888 84.7459C57.7888 86.5736 58.5147 88.3265 59.807 89.6189L60.3795 90.193C61.6719 91.4853 63.4248 92.2112 65.2524 92.2112C67.0801 92.2112 68.833 91.4853 70.1254 90.193C70.7654 89.5529 71.5252 89.0451 72.3615 88.6986C73.1977 88.3522 74.094 88.1739 74.9992 88.1739C75.9044 88.1739 76.8007 88.3522 77.6369 88.6986C78.4732 89.0451 79.233 89.5529 79.873 90.193C81.1654 91.4853 82.9183 92.2112 84.7459 92.2112C86.5736 92.2112 88.3265 91.4853 89.6189 90.193L90.193 89.6205C91.4853 88.3281 92.2112 86.5752 92.2112 84.7476C92.2112 82.9199 91.4853 81.1671 90.193 79.8746M51.4865 45H98.5135C102.096 45 105 47.9041 105 51.4865V98.5135C105 102.096 102.096 105 98.5135 105H51.4865C47.9041 105 45 102.096 45 98.5135V51.4865C45 47.9041 47.9041 45 51.4865 45ZM89.1892 67.7027C87.3613 67.7027 85.6084 66.9766 84.3159 65.6841C83.0234 64.3916 82.2973 62.6387 82.2973 60.8108C82.2973 58.983 81.5712 57.23 80.2787 55.9375C78.9862 54.645 77.2333 53.9189 75.4054 53.9189H74.5946C72.7668 53.9189 71.0138 54.645 69.7213 55.9375C68.4288 57.23 67.7027 58.983 67.7027 60.8108C67.7027 62.6387 66.9766 64.3916 65.6841 65.6841C64.3916 66.9766 62.6387 67.7027 60.8108 67.7027C58.983 67.7027 57.23 68.4288 55.9375 69.7213C54.645 71.0138 53.9189 72.7668 53.9189 74.5946V75.4054C53.9189 77.2333 54.645 78.9862 55.9375 80.2787C57.23 81.5712 58.983 82.2973 60.8108 82.2973C62.6387 82.2973 64.3916 83.0234 65.6841 84.3159C66.9766 85.6084 67.7027 87.3613 67.7027 89.1892C67.7027 91.017 68.4288 92.77 69.7213 94.0625C71.0138 95.355 72.7668 96.0811 74.5946 96.0811H75.4054C77.2333 96.0811 78.9862 95.355 80.2787 94.0625C81.5712 92.77 82.2973 91.017 82.2973 89.1892C82.2973 87.3613 83.0234 85.6084 84.3159 84.3159C85.6084 83.0234 87.3613 82.2973 89.1892 82.2973C91.017 82.2973 92.77 81.5712 94.0625 80.2787C95.355 78.9862 96.0811 77.2333 96.0811 75.4054V74.5946C96.0811 72.7668 95.355 71.0138 94.0625 69.7213C92.77 68.4288 91.017 67.7027 89.1892 67.7027Z" stroke="white" stroke-width="5" stroke-linecap="round" stroke-linejoin="round"/>
</svg>
