<svg width="150" height="150" viewBox="0 0 150 150" fill="none" xmlns="http://www.w3.org/2000/svg">
<circle cx="75" cy="75" r="75" fill="#002D01"/>
<path d="M45.4805 52.1035C45.1641 51.6738 45 51.1582 45 50.6426C45 49.1816 46.2891 48 47.8828 48H60.6914C62.0039 48 63.2344 48.6338 63.9023 49.665L71.9297 61.9219C66.2812 62.5771 61.2305 64.9941 57.4688 68.5713L45.4805 52.1035ZM104.508 52.1035L92.5312 68.5713C88.7695 64.9941 83.7188 62.5771 78.0703 61.9219L86.0977 49.665C86.7773 48.6338 87.9961 48 89.3086 48H102.117C103.711 48 105 49.1816 105 50.6426C105 51.1582 104.836 51.6738 104.52 52.1035H104.508ZM54.375 84.0938C54.375 79.0795 56.548 74.2706 60.4159 70.725C64.2839 67.1794 69.5299 65.1875 75 65.1875C80.4701 65.1875 85.7161 67.1794 89.5841 70.725C93.452 74.2706 95.625 79.0795 95.625 84.0938C95.625 89.108 93.452 93.9169 89.5841 97.4625C85.7161 101.008 80.4701 103 75 103C69.5299 103 64.2839 101.008 60.4159 97.4625C56.548 93.9169 54.375 89.108 54.375 84.0938ZM75.9844 73.8994C75.5859 73.1475 74.4258 73.1475 74.0156 73.8994L71.3906 78.7764C71.2266 79.0771 70.9219 79.2812 70.5703 79.3242L64.6875 80.1084C63.7852 80.2266 63.4336 81.2363 64.0781 81.8271L68.332 85.6299C68.5898 85.8662 68.707 86.1885 68.6484 86.5215L67.6406 91.8818C67.4883 92.6982 68.4258 93.332 69.2344 92.9453L74.4844 90.4102C74.8008 90.2598 75.1875 90.2598 75.5039 90.4102L80.7539 92.9453C81.5625 93.332 82.5 92.709 82.3477 91.8818L81.3398 86.5215C81.2812 86.1992 81.3984 85.8662 81.6562 85.6299L85.9102 81.8271C86.5664 81.2471 86.2031 80.2373 85.3008 80.1084L79.4297 79.3242C79.0781 79.2812 78.7617 79.0664 78.6094 78.7764L75.9844 73.8994Z" fill="white"/>
</svg>
