<svg width="150" height="150" viewBox="0 0 150 150" fill="none" xmlns="http://www.w3.org/2000/svg">
<circle cx="75" cy="75" r="75" fill="#002D01"/>
<path d="M48.25 104.999H100.75V97.4993H48.25V104.999ZM93.25 74.9993H85.45C83.5445 74.9993 82 73.4548 82 71.5493V70.4407C82 67.2333 83.0406 64.1817 84.5148 61.3329C85.5824 59.2692 86.0266 56.8341 85.5754 54.2524C84.782 49.7079 81.0672 45.9673 76.5215 45.1763C69.4164 43.9399 63.25 49.3739 63.25 56.2493C63.25 57.9087 63.6156 59.4767 64.2684 60.8876C65.8305 64.2685 67 67.8157 67 71.5411V71.5493C67 73.4548 65.4555 74.9993 63.55 74.9993H55.75C49.5367 74.9993 44.5 80.036 44.5 86.2493V89.9993C44.5 92.07 46.1793 93.7493 48.25 93.7493H100.75C102.821 93.7493 104.5 92.07 104.5 89.9993V86.2493C104.5 80.036 99.4633 74.9993 93.25 74.9993Z" fill="white"/>
</svg>
