<svg width="150" height="150" viewBox="0 0 150 150" fill="none" xmlns="http://www.w3.org/2000/svg">
<circle cx="75" cy="75" r="75" fill="#002D01"/>
<path d="M93.0003 54.4738C90.6134 54.4738 88.3242 53.4756 86.6363 51.699C84.9485 49.9223 84.0003 47.5126 84.0003 45M93.0003 60.7896C90.6134 60.7896 88.3242 61.7877 86.6363 63.5644C84.9485 65.3411 84.0003 67.7507 84.0003 70.2633M57.0001 54.4738C59.3871 54.4738 61.6763 53.4756 63.3641 51.699C65.0519 49.9223 66.0002 47.5126 66.0002 45M57.0001 60.7896C59.3871 60.7896 61.6763 61.7877 63.3641 63.5644C65.0519 65.3411 66.0002 67.7507 66.0002 70.2633M54.0001 99.9099H60.7801C63.8101 99.9099 66.8792 100.245 69.8282 100.883C75.0932 102.021 80.5105 102.147 85.8183 101.255C88.4223 100.813 90.9783 100.134 93.2943 98.9593C95.3824 97.8951 97.9414 96.4014 99.6604 94.7246C101.376 93.0509 103.164 90.313 104.43 88.1719C105.522 86.334 104.994 84.0824 103.272 82.715C102.305 81.9741 101.139 81.575 99.9424 81.575C98.7458 81.575 97.58 81.9741 96.6124 82.715L91.1913 87.0256C89.0913 88.6993 86.7963 90.2372 84.0633 90.6951C83.7333 90.7488 83.3883 90.7993 83.0283 90.8435M83.0283 90.8435C82.9184 90.8569 82.8084 90.8695 82.6983 90.8814M83.0283 90.8435C83.5085 90.7068 83.9487 90.4463 84.3093 90.0856C84.7614 89.6739 85.1305 89.1711 85.395 88.6068C85.6594 88.0425 85.8138 87.4282 85.8491 86.8C85.8843 86.1719 85.7996 85.5427 85.6001 84.9496C85.4006 84.3565 85.0902 83.8114 84.6873 83.3466C84.2964 82.8897 83.841 82.4989 83.3373 82.1876C74.9462 76.9171 61.8871 80.9308 54.0001 86.8203M83.0283 90.8435C82.9199 90.8683 82.8092 90.881 82.6983 90.8814M82.6983 90.8814C80.889 91.0728 79.0663 91.077 77.2562 90.894M91.2423 68.4128C93.0003 66.5623 93.0003 63.5875 93.0003 57.6317C93.0003 51.6758 93.0003 48.7011 91.2423 46.8505C89.4843 45 86.6583 45 81.0003 45H69.0002C63.3421 45 60.5161 45 58.7581 46.8505C57.0001 48.7011 57.0001 51.6758 57.0001 57.6317C57.0001 63.5875 57.0001 66.5623 58.7581 68.4128C60.5161 70.2633 63.3421 70.2633 69.0002 70.2633H81.0003C86.6583 70.2633 89.4843 70.2633 91.2423 68.4128ZM78.0002 57.6317C78.0002 58.4692 77.6842 59.2724 77.1216 59.8647C76.5589 60.4569 75.7959 60.7896 75.0002 60.7896C74.2046 60.7896 73.4415 60.4569 72.8789 59.8647C72.3163 59.2724 72.0002 58.4692 72.0002 57.6317C72.0002 56.7941 72.3163 55.9909 72.8789 55.3987C73.4415 54.8065 74.2046 54.4738 75.0002 54.4738C75.7959 54.4738 76.5589 54.8065 77.1216 55.3987C77.6842 55.9909 78.0002 56.7941 78.0002 57.6317ZM49.5 79.7371C51.9853 79.7371 54.0001 81.8579 54.0001 84.474V100.264C54.0001 102.88 51.9853 105 49.5 105C47.0147 105 45 102.88 45 100.264V84.474C45 81.8579 47.0147 79.7371 49.5 79.7371Z" stroke="white" stroke-width="5" stroke-linecap="round"/>
</svg>
