<svg width="40" height="40" viewBox="0 0 40 40" fill="none" xmlns="http://www.w3.org/2000/svg">
<path d="M3.78979 1.16215C5.92965 -0.0313172 8.65834 -0.310958 11.2668 0.348195C12.5371 0.667785 13.6221 1.48923 14.2736 2.62028L16.5237 6.53025C17.3257 7.9242 17.5573 9.57262 17.1704 11.1324C16.7835 12.6923 15.8078 14.0433 14.4465 14.9045L12.467 16.1579C11.6476 16.6747 11.3469 17.4662 11.5349 18.0929C12.2064 20.335 13.6923 22.8218 15.326 24.5246C15.8121 25.034 16.7041 25.1538 17.5761 24.647L18.6711 24.0103C19.3895 23.593 20.1842 23.3224 21.0088 23.2144C21.8333 23.1063 22.6712 23.1629 23.4735 23.3809C24.2758 23.5989 25.0266 23.974 25.6819 24.4841C26.3373 24.9943 26.8842 25.6293 27.2906 26.3523L29.3077 29.9352C29.9667 31.1087 30.0744 32.5094 29.6084 33.7703C28.6788 36.2745 26.8872 38.2944 24.6847 39.3056C22.4471 40.3318 19.8287 40.2894 17.4583 38.7139C13.7048 36.2221 9.18202 32.0275 5.08523 25.0315C0.935813 17.9406 -0.109058 11.9058 0.00870925 7.40663C0.0838798 4.52783 1.61235 2.37559 3.78979 1.16215ZM26.8221 0.213369C26.6783 0.133693 26.5201 0.0830196 26.3567 0.0642417C26.1932 0.0454638 26.0277 0.0589493 25.8694 0.103928C25.7112 0.148907 25.5634 0.224497 25.4345 0.326385C25.3056 0.428272 25.1981 0.554461 25.1182 0.697746C25.0382 0.841031 24.9874 0.998607 24.9685 1.16148C24.9497 1.32434 24.9632 1.48932 25.0084 1.64697C25.0535 1.80463 25.1294 1.95188 25.2316 2.08033C25.3339 2.20877 25.4605 2.31589 25.6043 2.39557L26.5665 2.92988C29.5723 4.59375 32.1292 6.95808 34.0186 9.82079C35.908 12.6835 37.0737 15.9595 37.4161 19.3688L37.4963 20.1552C37.5057 20.3236 37.5493 20.4883 37.6244 20.6394C37.6995 20.7905 37.8045 20.9248 37.9331 21.0344C38.0617 21.1439 38.2112 21.2264 38.3727 21.2768C38.5342 21.3272 38.7042 21.3445 38.8726 21.3276C39.0409 21.3107 39.2041 21.26 39.3522 21.1786C39.5004 21.0972 39.6305 20.9867 39.7346 20.8538C39.8387 20.7209 39.9148 20.5684 39.9582 20.4054C40.0015 20.2424 40.0113 20.0724 39.9869 19.9056L39.9092 19.1216C39.5269 15.3104 38.2241 11.6483 36.1122 8.44809C34.0002 5.24792 31.1419 2.60497 27.7817 0.745186L26.8221 0.213369ZM23.8854 6.90477C24.0565 6.62107 24.3338 6.41671 24.6561 6.33665C24.9785 6.25658 25.3195 6.30736 25.6043 6.47782L25.915 6.66258C27.9376 7.87091 29.6727 9.50249 31.0004 11.4445C32.3282 13.3866 33.2168 15.5928 33.6049 17.9106L33.7152 18.5773C33.7477 18.7412 33.7468 18.91 33.7126 19.0736C33.6784 19.2372 33.6116 19.3923 33.5162 19.5297C33.4207 19.6671 33.2986 19.784 33.1569 19.8735C33.0153 19.9629 32.8571 20.0232 32.6916 20.0506C32.5262 20.078 32.3569 20.0721 32.1939 20.0331C32.0308 19.9941 31.8772 19.9229 31.7423 19.8237C31.6073 19.7245 31.4937 19.5993 31.4083 19.4555C31.3228 19.3117 31.2671 19.1523 31.2446 18.9868L31.1318 18.3226C30.8043 16.3613 30.0532 14.4942 28.9306 12.8505C27.8079 11.2068 26.3404 9.82554 24.6296 8.80233L24.3189 8.61757C24.1777 8.53333 24.0545 8.42219 23.9565 8.29051C23.8584 8.15883 23.7873 8.00919 23.7473 7.85014C23.7073 7.69108 23.6991 7.52572 23.7232 7.36352C23.7473 7.20131 23.8008 7.04543 23.8854 6.90477Z" fill="#35A137"/>
</svg>
